{
	"asset":{
		"generator":"Khronos glTF Blender I/O v3.6.27",
		"version":"2.0"
	},
	"scene":0,
	"scenes":[
		{
			"name":"Scene",
			"nodes":[
				0
			]
		}
	],
	"nodes":[
		{
			"mesh":0,
			"name":"Sphere"
		}
	],
	"meshes":[
		{
			"name":"Sphere",
			"primitives":[
				{
					"attributes":{
						"POSITION":0,
						"NORMAL":1,
						"TEXCOORD_0":2
					},
					"indices":3
				}
			]
		}
	],
	"accessors":[
		{
			"bufferView":0,
			"componentType":5126,
			"count":1888,
			"max":[
				0.9999997019767761,
				0.9807852506637573,
				0.9999993443489075
			],
			"min":[
				-0.9999990463256836,
				-1,
				-1
			],
			"type":"VEC3"
		},
		{
			"bufferView":1,
			"componentType":5126,
			"count":1888,
			"type":"VEC3"
		},
		{
			"bufferView":2,
			"componentType":5126,
			"count":1888,
			"type":"VEC2"
		},
		{
			"bufferView":3,
			"componentType":5123,
			"count":2784,
			"type":"SCALAR"
		}
	],
	"bufferViews":[
		{
			"buffer":0,
			"byteLength":22656,
			"byteOffset":0,
			"target":34962
		},
		{
			"buffer":0,
			"byteLength":22656,
			"byteOffset":22656,
			"target":34962
		},
		{
			"buffer":0,
			"byteLength":15104,
			"byteOffset":45312,
			"target":34962
		},
		{
			"buffer":0,
			"byteLength":5568,
			"byteOffset":60416,
			"target":34963
		}
	],
	"buffers":[
		{
			"byteLength":65984,
			"uri":"data:application/octet-stream;base64,"
		}
	]
}
